<?xml version="1.0" encoding="UTF-8"?>
<svg id="Ebene_1" data-name="Ebene 1" xmlns="http://www.w3.org/2000/svg" viewBox="0 0 1024 1024">
  <defs>
    <style>
      .cls-1 {
        fill: #fff;
      }

      .cls-2 {
        fill: #4590c4;
      }

      .cls-3 {
        fill: #074067;
      }
    </style>
  </defs>
  <rect class="cls-2" x="333" y="489.34" width="358.71" height="83.65"/>
  <path class="cls-3" d="M670.57,422.09h-16.96v-22.42c0-5.91-5.12-10.71-11.43-10.71h-262.86c-6.31,0-11.43,4.79-11.43,10.71v22.42h-14.46c-50.49,0-91.43,38.35-91.43,85.66v297.13c0,47.31,40.93,85.66,91.43,85.66h317.14c50.49,0,91.43-38.35,91.43-85.66v-297.13c0-47.31-40.93-85.66-91.43-85.66ZM690.75,771.32c0,28.97-25.07,52.46-55.99,52.46h-245.16c-30.92,0-55.99-23.49-55.99-52.46v-229.68c0-28.97,25.07-52.46,55.99-52.46h245.16c30.92,0,55.99,23.49,55.99,52.46v229.68Z"/>
  <g>
    <rect class="cls-3" x="374.5" y="611.36" width="71.43" height="66.92" rx="16" ry="16"/>
    <rect class="cls-3" x="475.93" y="611.36" width="71.43" height="66.92" rx="16" ry="16"/>
    <rect class="cls-3" x="577.36" y="611.36" width="71.43" height="66.92" rx="16" ry="16"/>
    <rect class="cls-3" x="374.5" y="712.86" width="71.43" height="66.92" rx="16" ry="16"/>
    <rect class="cls-3" x="475.21" y="712.86" width="71.43" height="66.92" rx="16" ry="16"/>
  </g>
  <g>
    <rect class="cls-3" x="577.18" y="432.96" width="71.43" height="117.11" rx="35.71" ry="35.71"/>
    <rect class="cls-1" x="595.04" y="453.37" width="35.71" height="76.29" rx="17.86" ry="17.86"/>
  </g>
  <g>
    <path class="cls-2" d="M510.75,254.79h0c59.13,0,107.14,48.01,107.14,107.14v9.97h-214.29v-9.97c0-59.13,48.01-107.14,107.14-107.14Z"/>
    <rect class="cls-2" x="494.14" y="133.47" width="35.71" height="98.36" rx="17.86" ry="17.86"/>
    <path class="cls-2" d="M580.74,249.83h0c-6.97-6.53-6.97-17.13,0-23.66l48.98-45.89c6.97-6.53,18.28-6.53,25.25,0h0c6.97,6.53,6.97,17.13,0,23.66l-48.98,45.89c-6.97,6.53-18.28,6.53-25.25,0Z"/>
    <path class="cls-2" d="M440.63,249.83h0c-6.97,6.53-18.28,6.53-25.25,0l-48.98-45.89c-6.97-6.53-6.97-17.13,0-23.66h0c6.97-6.53,18.28-6.53,25.25,0l48.98,45.89c6.97,6.53,6.97,17.13,0,23.66Z"/>
  </g>
  <g>
    <rect class="cls-3" x="374.66" y="433.02" width="71.43" height="117.11" rx="35.71" ry="35.71"/>
    <rect class="cls-1" x="392.52" y="453.43" width="35.71" height="76.29" rx="17.86" ry="17.86"/>
  </g>
</svg>